<?xml version="1.0" standalone="no"?>
<!DOCTYPE svg PUBLIC "-//W3C//DTD SVG 20010904//EN"
 "http://www.w3.org/TR/2001/REC-SVG-20010904/DTD/svg10.dtd">
<svg version="1.0" xmlns="http://www.w3.org/2000/svg"
 width="260.000000pt" height="260.000000pt" viewBox="0 0 260.000000 260.000000"
 preserveAspectRatio="xMidYMid meet">
<metadata>
Created by potrace 1.14, written by Peter Selinger 2001-2017
</metadata>
<g transform="translate(0.000000,260.000000) scale(0.100000,-0.100000)"
fill="#000000" stroke="none">
<path d="M4 2533 c2 -38 9 -142 14 -233 12 -194 38 -424 52 -450 6 -10 10 -76
11 -147 0 -70 4 -175 9 -233 33 -399 40 -471 54 -523 23 -89 55 -138 115 -178
102 -68 197 -84 554 -93 120 -3 226 -10 235 -15 10 -5 23 -31 30 -58 7 -26 29
-79 49 -118 42 -83 159 -202 237 -242 55 -28 115 -75 131 -104 6 -10 42 -45
80 -78 l70 -61 211 0 c193 0 214 2 254 21 57 28 134 82 192 135 26 24 71 55
100 68 62 28 135 100 172 171 l26 50 0 465 0 466 -42 41 c-56 52 -120 95 -188
124 -30 12 -66 30 -80 39 -74 49 -152 88 -205 104 -33 9 -88 26 -121 37 -124
38 -251 35 -429 -10 -44 -12 -116 -22 -160 -23 l-80 -3 -5 190 c-3 125 -9 197
-18 212 -6 12 -12 38 -12 59 0 36 -23 181 -42 256 -5 21 -26 56 -47 78 -32 34
-44 40 -80 40 -57 0 -116 -32 -146 -79 -13 -22 -29 -42 -34 -45 -5 -4 -19 -32
-31 -64 -12 -31 -35 -86 -52 -120 l-30 -64 -83 4 c-75 3 -87 6 -131 37 -73 51
-163 141 -174 176 -6 17 -55 75 -114 133 l-104 102 -97 0 -97 0 6 -67z m541
-605 c39 -10 84 -22 100 -25 17 -3 40 -14 51 -25 13 -11 24 -15 28 -10 4 7 17
7 39 0 40 -12 159 20 218 59 44 29 62 22 102 -39 52 -80 62 -239 20 -297 -37
-50 -106 -74 -226 -79 -123 -5 -152 3 -197 55 l-31 34 -28 -29 c-41 -44 -101
-58 -171 -39 -79 22 -147 64 -181 110 -26 35 -29 48 -29 112 0 94 27 149 90
182 50 26 92 25 215 -9z m1160 -430 c3 -35 7 -90 8 -123 l2 -60 -142 -3 c-112
-2 -143 0 -143 10 0 7 17 37 38 67 53 76 62 93 62 119 0 17 6 22 28 23 15 0
45 6 67 14 71 23 73 22 80 -47z m422 -31 c40 -23 96 -54 124 -68 36 -18 56
-36 65 -58 l13 -31 -92 0 -92 1 -19 41 c-10 22 -48 70 -83 106 -34 35 -63 66
-63 67 0 11 87 -24 147 -58z m-1805 -24 c37 -19 74 -29 128 -34 41 -3 70 -7
64 -7 -6 -1 -18 -30 -25 -63 -14 -64 -30 -80 -58 -61 -9 7 -33 21 -54 32 -31
17 -36 24 -27 35 6 8 10 24 8 37 -4 33 -39 30 -56 -4 -15 -31 -24 -34 -41 -14
-7 8 -27 17 -46 20 -48 9 -43 45 10 74 29 17 40 15 97 -15z m378 -129 l0 -97
-63 6 c-34 3 -75 11 -90 16 -27 11 -27 11 -12 47 18 44 20 110 3 117 -7 3 26
6 75 6 l87 1 0 -96z m183 36 c4 -33 9 -71 13 -84 5 -22 2 -24 -48 -30 -29 -4
-63 -10 -75 -13 -23 -5 -23 -4 -23 91 l0 96 64 0 63 0 6 -60z m206 39 c17 -6
31 -14 31 -18 0 -4 -17 -16 -37 -27 -21 -10 -55 -30 -76 -43 -46 -29 -55 -23
-66 47 l-8 52 62 0 c34 0 76 -5 94 -11z m831 -54 l23 -25 -26 0 c-22 0 -27 5
-27 25 0 14 1 25 3 25 2 0 14 -11 27 -25z m-1700 -13 c39 -19 51 -58 29 -99
-12 -23 -13 -23 -37 19 -27 47 -45 98 -34 98 4 -1 23 -9 42 -18z m930 -37 c0
-19 -22 -47 -79 -104 l-80 -79 -5 29 c-3 16 -9 42 -12 58 -4 24 -1 30 18 36
13 4 30 14 39 21 12 11 104 61 117 63 1 1 2 -10 2 -24z m-758 -52 c63 -30 65
-35 47 -112 -5 -24 -10 -59 -11 -77 -1 -19 -5 -34 -10 -34 -4 0 -40 31 -79 70
l-71 69 20 29 c12 15 24 40 27 55 4 15 10 27 14 27 3 0 32 -12 63 -27z m255
-62 l52 -1 3 -107 c3 -108 3 -108 28 -108 l25 0 -3 107 -4 106 69 7 c37 4 75
9 83 11 12 3 19 -10 29 -58 7 -35 17 -68 23 -75 12 -15 -71 -78 -127 -95 -22
-7 -94 -12 -160 -13 -106 0 -125 3 -168 24 -42 20 -46 25 -31 35 17 13 33 77
34 142 l0 41 48 -8 c26 -4 70 -8 99 -8z m1373 -58 c0 -16 3 -58 7 -95 l6 -68
-93 0 -93 0 7 61 c3 34 6 75 6 90 0 30 10 33 118 37 40 2 42 0 42 -25z m339
21 c17 -4 31 -12 31 -19 0 -6 7 -26 16 -43 8 -17 18 -47 21 -65 l5 -34 -108
-6 c-59 -4 -110 -5 -113 -2 -2 3 -7 44 -10 90 l-6 85 66 0 c37 0 81 -3 98 -6z
m-679 -94 l0 -90 -42 0 c-24 0 -80 -3 -125 -7 l-83 -6 0 37 c0 20 -7 53 -15
73 -8 19 -15 46 -15 59 l0 24 140 0 140 0 0 -90z m747 -350 l-2 -100 -95 0
c-52 0 -105 -3 -116 -6 -21 -6 -21 -4 -12 43 6 26 10 74 9 106 l-2 57 110 0
110 0 -2 -100z m-743 3 c4 -43 8 -87 9 -98 2 -17 -7 -21 -62 -28 -77 -11 -80
-9 -142 115 l-39 77 58 4 c31 2 82 4 113 5 l56 2 7 -77z m356 52 c0 -13 -5
-56 -12 -95 l-12 -70 -72 0 -71 0 -7 46 c-3 26 -6 69 -6 95 l0 49 90 0 c89 0
90 0 90 -25z m-704 -152 c19 -43 20 -49 5 -55 -31 -13 -38 -8 -57 39 -11 27
-20 51 -22 55 -2 5 9 8 25 8 24 0 31 -7 49 -47z m607 -245 c-39 -98 -56 -107
-28 -15 8 26 12 54 9 62 -5 11 1 15 19 15 l25 0 -25 -62z m417 56 c0 -3 -16
-12 -36 -20 -35 -15 -68 -38 -189 -134 -27 -21 -51 -38 -52 -36 -3 3 40 110
67 169 13 27 14 27 112 27 54 0 98 -2 98 -6z"/>
<path d="M349 1821 c-17 -18 -29 -40 -29 -56 0 -16 12 -38 29 -56 18 -17 40
-29 56 -29 35 0 85 50 85 85 0 35 -50 85 -85 85 -16 0 -38 -12 -56 -29z"/>
<path d="M872 1787 c-50 -53 -13 -137 59 -137 47 0 79 34 79 81 0 71 -90 107
-138 56z"/>
</g>
</svg>
